<svg id="Layer_1" xmlns="http://www.w3.org/2000/svg" viewBox="0 0 32 32" enable-background="new 0 0 32 32"><style>.st0{filter:url(#filter-2);} .st1{fill:#E9E9E9;} .st2{fill:#2B2B2B;}</style><filter filterUnits="objectBoundingBox" height="141.7%" id="filter-2" width="137.5%" x="-18.8%" y="-10.4%"><feOffset dy="3" in="SourceAlpha" result="shadowOffsetOuter1"/><feGaussianBlur in="shadowOffsetOuter1" result="shadowBlurOuter1" stdDeviation="1"/><feColorMatrix in="shadowBlurOuter1" values="0 0 0 0 0 0 0 0 0 0 0 0 0 0 0 0 0 0 0.25 0"/></filter><g id="Panel"><g id="Artboard-2"><g id="path-1_2_"><g class="st0"><circle id="path-1_4_" cx="16" cy="15" r="12"/></g><circle id="path-1_1_" class="st1" cx="16" cy="15" r="12"/></g><g id="close" transform="translate(6 5)"><circle id="path-1_3_" class="st2" cx="10" cy="10" r="10"/><path id="Combined-Shape" class="st1" d="M11.3 9.9l3.5-3.5c.4-.4.4-1 0-1.4-.4-.4-1-.4-1.4 0L9.9 8.5 6.4 5c-.4-.4-1-.4-1.4 0s-.4 1 0 1.4l3.5 3.5L5 13.4c-.4.4-.4 1 0 1.4.4.4 1 .4 1.4 0l3.5-3.5 3.5 3.5c.4.4 1 .4 1.4 0 .4-.4.4-1 0-1.4l-3.5-3.5z"/></g></g></g></svg>